<?xml version="1.0" encoding="utf-8"?>
<svg width="491.38965px" height="100px" viewBox="0 0 491.38965 100" version="1.1" xmlns:xlink="http://www.w3.org/1999/xlink" xmlns="http://www.w3.org/2000/svg">
  <defs>
    <path d="M0 0L491.39 0L491.39 100L0 100L0 0Z" id="path_1" />
    <path d="M2.78532 73.2399C7.14363 70.4788 10.9223 70.8243 13.141 74.5727C18.7281 84.0122 27.5133 86.8096 37.5905 86.2256C41.9188 85.9747 46.544 84.8296 50.3499 82.8046C58.8801 78.2658 59.9687 67.5339 53.2153 60.5259C48.7751 55.9183 43.0323 54.4351 37.0232 53.6551C29.4297 52.6695 22.0649 51.1393 15.5587 46.7431C7.44385 41.2598 3.73306 33.6364 4.78669 23.9841C5.78738 14.8167 11.4722 9.04455 19.6979 5.67587C29.3759 1.71246 39.371 0.88308 49.4495 3.9017C57.5982 6.34233 63.2729 11.9908 67.5038 19.1483C69.3198 22.2205 68.6854 24.983 66.1312 26.8049C63.8617 28.4238 60.1037 27.7871 58.0796 25.341C56.8366 23.8389 55.8612 22.1047 54.5514 20.6704C46.8364 12.2218 30.3945 10.7997 21.274 17.7759C17.6588 20.5411 16.3602 24.3324 16.9018 28.7612C17.6085 34.5399 21.135 38.4251 26.3711 39.9903C32.5021 41.823 38.9493 42.5793 45.2335 43.9231C53.8363 45.7627 61.6422 49.2601 66.1773 57.1998C73.219 69.528 71.1808 88.3346 51.4167 95.1732C37.9044 99.8485 24.6381 98.6613 12.3254 90.7954C7.83649 87.9278 4.33708 84.0899 2.33538 79.2042C1.67274 77.5869 2.47347 75.37 2.78532 73.2399L2.78532 73.2399Z" id="path_2" />
    <path d="M383.803 86.9727C391.367 68.921 398.811 51.1289 406.277 33.3461C409.833 24.876 413.475 16.4416 416.986 7.953C418.155 5.12482 419.947 3.17245 423.108 3.23332C426.24 3.29361 427.952 5.26953 429.135 8.10111C440.134 34.4312 451.225 60.7227 462.255 87.0396C464.019 91.2465 462.823 94.6591 459.293 96.0268C455.469 97.5088 452.445 95.977 450.666 91.5486C442.001 69.9791 433.36 48.4001 424.703 26.8271C424.321 25.875 423.873 24.9494 423.206 23.4506C420.208 30.7015 417.376 37.4774 414.601 44.2764C408.179 60.0121 401.812 75.7703 395.361 91.4941C393.569 95.8623 390.605 97.4078 387.023 96.1272C383.544 94.8835 382.437 91.9271 383.803 86.9727L383.803 86.9727Z" id="path_3" />
    <path d="M352.796 34.5981C343.908 29.6486 334.507 29.8324 324.813 33.1734C323.064 34.1284 321.477 34.8423 320.044 35.7896C307.031 44.3938 302.082 57.5337 305.265 71.3463C309.653 90.3877 328.215 100.945 346.989 95.4914C351.177 94.2746 355.02 91.8649 359.012 90.0089C359.067 90.4049 359.118 91.0911 359.261 91.7577C360.038 95.3833 362.211 97.2133 365.425 96.9814C368.441 96.7638 370.615 94.4002 370.66 90.7549L370.669 89.9675C370.776 81.2277 370.883 72.4821 370.668 63.7469C370.347 50.6582 364.121 40.9048 352.796 34.5981ZM344.528 84.3753C355.37 80.7961 361.494 68.9243 358.197 57.4912C353.521 45.0349 340.79 39.0707 329.352 43.7254C318.713 48.0551 313.241 60.5569 317.191 71.5115C321.119 82.4078 333.228 88.1059 344.528 84.3753Z" id="path_4" />
    <path d="M127.457 69.6607C123.529 69.6605 119.947 69.7163 116.367 69.6449C112.547 69.5687 110.14 67.4655 109.989 64.2289C109.831 60.841 112.135 58.4493 116.123 58.2267C119.463 58.0403 122.821 58.1632 126.171 58.1571C129.391 58.1513 132.612 58.1559 135.854 58.1559C135.203 51.3397 128.154 44.4034 120.373 42.6756C110.024 40.3774 98.7005 46.5371 95.2613 56.3349C91.5614 66.8758 96.1185 78.6099 106.036 83.3377C113.051 86.6818 120.104 86.3674 126.885 82.3968C127.977 81.7575 128.998 80.994 130.108 80.3901C133.043 78.7926 135.597 79.312 137.431 81.8125C139.287 84.3413 139.009 87.3539 136.488 89.5208C130.363 94.7863 123.095 97.2917 115.138 96.9484C99.114 96.2572 88.0537 87.3499 83.6366 72.1393C79.7442 58.7355 86.3254 42.8953 98.3437 35.6477C117.83 23.8966 142.485 34.4477 147.97 56.6336C148.518 58.8533 148.756 61.197 148.784 63.4875C148.829 67.122 146.443 69.5088 142.706 69.6025C137.741 69.727 132.771 69.6507 127.457 69.6607L127.457 69.6607Z" id="path_5" />
    <path d="M214.204 96.1631C211.188 94.4006 210.772 91.7117 210.766 88.8601C210.749 79.0464 210.96 69.2267 210.688 59.4202C210.302 45.4973 195.139 37.0534 183.155 44.0807C177.728 47.2628 174.104 52.0938 173.939 58.6296C173.68 68.8978 173.802 79.1752 173.706 89.4482C173.66 94.2937 171.589 96.7809 167.737 96.7262C164.699 96.683 162.783 95.126 162.067 92.1691C161.851 91.2781 161.64 90.3527 161.65 89.4455C161.769 78.4858 161.512 67.5012 162.179 56.5733C163.141 40.7873 178.883 28.526 194.577 29.7446C207.455 30.7445 219.44 40.718 222.048 53.589C222.48 55.7204 222.753 57.9216 222.77 60.0931C222.848 70.1373 222.921 80.1842 222.765 90.2265C222.685 95.3934 219.592 97.4768 214.204 96.1631L214.204 96.1631Z" id="path_6" />
    <path d="M253.572 47.0577C253.618 52.1957 254.585 53.9076 259.35 55.4824C264.033 57.0303 268.942 57.8822 273.665 59.3238C277.279 60.4267 280.971 61.5866 284.248 63.407C289.911 66.5537 292.855 71.5617 292.548 78.2373C292.214 85.5001 288.483 90.566 282.246 93.8597C271.255 99.6633 250.994 97.2057 241.584 89.0688C239.6 87.3541 238.049 85.086 239.283 82.7416C240.284 80.8401 242.476 78.7122 244.417 78.3976C246.376 78.0801 249.009 79.445 250.771 80.8137C258.158 86.5508 266.24 87.502 274.927 84.9008C277.946 83.9968 280.315 82.1433 280.675 78.711C281.051 75.1179 279.131 72.5434 276.04 71.3894C271.214 69.5874 266.117 68.522 261.252 66.8106C256.951 65.2976 252.447 63.8906 248.67 61.45C239.31 55.4009 239.23 42.6719 248.136 36.0005C258.612 28.1526 278.314 29.2288 287.817 38.168C291.381 41.5205 292.155 44.412 290.129 46.8055C288.046 49.2678 284.302 49.3816 280.81 46.6283C274.1 41.3382 266.701 39.98 258.721 42.6493C256.779 43.2987 255.311 45.3639 253.572 47.0577L253.572 47.0577Z" id="path_7" />
    <path d="M479.139 95.1425C478.228 93.0024 476.953 91.0137 476.943 89.0185C476.809 62.936 476.842 36.8526 476.864 10.7694C476.868 5.97363 479.171 3.26587 483.07 3.25917C486.802 3.25275 489.252 6.13948 489.264 10.8751C489.307 28.0714 489.281 45.268 489.281 62.4644C489.281 71.3511 489.36 80.2388 489.254 89.1243C489.178 95.507 484.897 98.099 479.139 95.1425L479.139 95.1425Z" id="path_8" />
    <clipPath id="clip_1">
      <use xlink:href="#path_1" />
    </clipPath>
  </defs>
  <g id="Screenshot 2023-05-01 225057_adobe_express" clip-path="url(#clip_1)">
    <path d="M0 0L491.39 0L491.39 100L0 100L0 0Z" id="Screenshot-2023-05-01-225057_adobe_express" fill="none" fill-rule="evenodd" stroke="none" />
    <g id="Shape">
      <use xlink:href="#path_2" fill="none" stroke="#1C035C" stroke-width="6" stroke-linecap="round" stroke-linejoin="round" />
      <use stroke="none" fill="#1C035C" xlink:href="#path_2" />
    </g>
    <g id="Shape">
      <use xlink:href="#path_3" fill="none" stroke="#1A74F5" stroke-width="6" stroke-linecap="round" stroke-linejoin="round" />
      <use stroke="none" fill="#1A74F5" xlink:href="#path_3" />
    </g>
    <g id="Shape-Path-Subtract">
      <use xlink:href="#path_4" fill="none" stroke="#1C035C" stroke-width="6" stroke-linecap="round" stroke-linejoin="round" />
      <use stroke="none" fill="#1C035C" xlink:href="#path_4" fill-rule="evenodd" />
    </g>
    <g id="Shape">
      <use xlink:href="#path_5" fill="none" stroke="#1C035C" stroke-width="6" stroke-linecap="round" stroke-linejoin="round" />
      <use stroke="none" fill="#1C035C" xlink:href="#path_5" />
    </g>
    <g id="Shape">
      <use xlink:href="#path_6" fill="none" stroke="#1C035C" stroke-width="6" stroke-linecap="round" stroke-linejoin="round" />
      <use stroke="none" fill="#1C035C" xlink:href="#path_6" />
    </g>
    <g id="Shape">
      <use xlink:href="#path_7" fill="none" stroke="#1C035C" stroke-width="6" stroke-linecap="round" stroke-linejoin="round" />
      <use stroke="none" fill="#1C035C" xlink:href="#path_7" />
    </g>
    <g id="Shape">
      <use xlink:href="#path_8" fill="none" stroke="#1A74F5" stroke-width="6" stroke-linecap="round" stroke-linejoin="round" />
      <use stroke="none" fill="#1A74F5" xlink:href="#path_8" />
    </g>
  </g>
</svg>